<svg width="366" height="357" viewBox="0 0 366 357" fill="none" xmlns="http://www.w3.org/2000/svg">
<path d="M323.8 91.6735C321.449 90.6093 310.383 85.6629 293.575 81.8483C265.509 75.4789 244.532 88.6543 226.442 98.2017C206.647 108.649 194.568 142.381 189.774 157.553C182.984 179.038 191.25 201.19 200.312 216.755C208.281 230.443 218.013 234.704 233.572 242.441C254.403 252.801 277.514 247.103 285.99 244.188C289.842 242.863 274.825 259.802 248.124 288.669C230.931 307.257 211.657 308.853 183.005 309.198C163.717 309.431 142.642 290.285 122.736 269.074C106.899 252.197 103.573 233.12 99.8949 212.236C97.2408 197.167 96.0097 172.566 95.0503 157.349C93.1351 126.971 100.003 108.782 108.117 91.7179C112.338 82.8411 122.867 71.6548 137.332 57.5511C162.348 33.1606 180.096 29.1381 192.778 25.5952C199.053 23.8422 216.21 24.4366 243.442 26.4559C270.624 28.4715 285.914 36.1607 291.09 38.6286C305.569 48.7956 315.999 60.5237 320.902 69.6687C323.41 74.7651 325.959 80.7867 329.451 90.2938" stroke="white" stroke-width="14" stroke-linecap="round"/>
<path d="M283.997 113.409C283.472 115.719 276.471 131.359 265.693 143.62C262.637 147.096 256.335 149.623 254.882 151.317C253.494 152.936 261.105 152.679 265.102 152.802C273.814 153.07 279.188 169.685 282.106 177.728C284.497 184.32 289.435 161.891 296.574 156.195C307.618 147.384 314.828 149.727 316.848 148.486C317.769 147.92 316.919 145.977 315.951 144.697C311.922 139.368 304.102 136.959 297.844 129.549C295.528 125.681 293.393 120.112 291.531 113.84C290.779 111.216 290.419 109.728 289.426 106.403" stroke="white" stroke-width="14" stroke-linecap="round"/>
<path d="M71.253 327C71.253 324.959 70.6065 317.757 67.7016 310.911C64.0443 302.291 50.1552 301.849 45.034 299.857C37.4003 296.886 69.0431 286.662 81.9806 274.274C88.6003 267.936 90.4374 259.222 92.0311 257.106C99.2397 247.538 97.9179 281.095 109.089 294.584C111.044 296.944 109.431 298.754 107.343 299.678C102.238 300.928 97.3704 301.901 91.3931 306.168C87.1741 309.795 80.5473 316.392 72.579 326.66" stroke="white" stroke-width="14" stroke-linecap="round"/>
<path d="M155.399 199.383C159.571 205.1 169.274 215.816 175.736 219.994C178.612 221.853 181.352 222.395 183.08 222.387C183.888 222.384 184.337 221.212 184.595 220.286C185.102 218.467 183.997 214.094 182.971 209.545C182.704 208.361 183.317 209.392 183.653 209.472C184.59 209.694 178.58 198.745 169.669 184.519C165.592 178.011 164.751 174.39 163.957 168.284C163.422 158.306 163.483 150.706 164.282 147.32C164.814 145.412 165.602 143.12 167.585 139.897" stroke="white" stroke-width="14" stroke-linecap="round"/>
<path d="M166.997 135.15C166.835 122.596 166.315 98.795 165.987 102.282C165.817 104.101 165.04 105.939 159.634 116.43C154.228 126.921 144.063 145.988 138.441 156.974C129.246 174.943 129.289 183.56 128.373 186.156C126.06 192.709 117.832 173.9 116.338 169.08C114.281 162.441 114.402 151.943 115.136 139.482C115.966 125.4 120.093 116.338 121.52 112.829C122.896 109.446 129.289 100.133 139.462 86.1905C147.628 74.9984 155.631 69.6969 160.248 66.8202C163.423 64.8428 167.431 63.475 172.925 62.0019C178.907 61.0644 187.7 60.6792 197 60.4684C200.692 60.3045 202.299 60.0249 203.954 59.7369" stroke="white" stroke-width="38" stroke-linecap="round"/>
<path d="M249.254 70.4729C249.025 70.319 243.674 70.3542 228.869 72.6672C219.165 74.1832 205.545 79.1449 195.977 82.9205C181.004 88.8292 174.464 94.9726 169.661 100.432C166.609 103.901 162.752 109.166 162.137 110.115C164.378 107.633 173.33 99.544 183.498 92.0399C187.656 89.0907 189.779 87.8854 193.255 86.1944" stroke="white" stroke-width="38" stroke-linecap="round"/>
<path d="M222.993 77.0446C220.679 77.0858 213.92 78.012 202.024 86.8932C199.051 89.1122 197.631 90.8821 193.123 96.5871C188.614 102.292 181.185 112.037 176.689 118.663C172.194 125.289 170.856 128.501 168.723 136.811C166.591 145.121 163.704 158.432 162.244 167.568C160.072 181.158 161.728 187.397 164.747 191.912C170.084 199.893 175.535 207.19 177.254 210.96C177.555 211.62 174.67 205.938 173.225 193.041C172.269 184.508 172.432 171.797 172.944 161.602C173.827 144.012 177.054 133.219 179.062 127.35C180.025 124.79 180.877 123.08 181.545 121.888C182.214 120.697 182.674 120.075 184.082 117.561" stroke="white" stroke-width="38" stroke-linecap="round"/>
<path d="M129.397 169.634C129.168 169.709 128.936 181.048 129.035 199.856C129.142 219.933 138.119 231.244 138.449 232.393C138.572 232.819 137.394 232.847 136.195 232.103C133.196 230.242 129.539 224.774 124.255 215.476C116.741 202.255 114.099 189.261 113.646 188.192C112.526 185.544 115.335 200.815 116.317 209.209C118.082 224.305 118.578 232.29 119.192 234.767C120.026 238.135 126.356 247.878 136.063 261.19C147.039 276.24 158.435 279.13 160.699 279.521C161.411 279.644 158.433 276.206 152.849 266.627C147.264 257.049 138.446 240.563 133.12 229.598C122.475 207.679 123.525 200.624 123.85 196.221C124.197 191.515 132.057 193.085 134.222 193.271C136.154 193.438 145.073 202.309 157.917 215.205C167.466 224.793 174.417 231.096 176.82 234.652C177.354 235.441 177.337 236.354 176.958 236.836C174.623 239.802 166.596 235.771 157.084 230.385C147.387 224.892 181.946 238.769 189.516 239.052C191.646 239.132 194.941 237.503 196.742 236.512C198.543 235.521 198.685 234.602 198.441 233.847C197.953 232.341 192.569 229.206 184.707 224.441C178.799 220.861 172.605 218.879 165.627 216.92C158.267 214.853 149.555 214.884 142.551 215.416C140.101 215.602 140.058 216.816 141.489 218.174C142.919 219.532 145.867 221.304 150.805 223.585C155.742 225.866 162.579 228.603 175.565 232.872C188.551 237.14 207.48 242.856 217.806 246.133C229.373 249.804 233.395 252.119 239.823 255.055C253.35 261.235 259.464 262.271 261.696 262.017C262.263 261.953 261.46 261.254 260.393 260.991C255.957 259.901 250.695 265.897 243.988 271.392C240.755 274.041 233.347 276.212 224.329 280.052C215.311 283.893 204.392 288.54 197.691 291.249C185.708 296.094 181.42 295.242 176.906 293.626C165.789 289.647 162.822 285.486 160.053 282.307C157.043 278.85 157.546 271.522 158.732 265.281C159.658 260.405 165.39 259.78 169.47 259.154C171.081 258.906 173.526 259.105 174.263 258.936C174.84 258.804 167.3 254.459 159.267 249.259C157.037 247.815 172.741 259.079 188.046 265.648C200.704 271.081 218.917 267.858 222.443 269.327C227.494 271.432 229.156 276.54 230.04 278.564C232.866 285.03 223.178 294.612 221.084 295.82C216.91 298.228 209.369 297.175 202.04 296.674C195.532 296.229 190.444 292.938 184.843 289.542C169.922 280.495 167.109 274.553 167.209 273.166C167.966 262.637 193.948 268.316 194.995 265.256C195.381 262.842 194.492 257.933 191.542 249.559C189.505 245.03 186.371 239.933 183.142 234.681" stroke="white" stroke-width="26" stroke-linecap="round"/>
<path d="M165.902 79.8955C165.913 76.8188 167.585 66.3362 170.969 59.0846C173.018 54.694 178.494 51.0332 189.145 44.7082C191.903 43.0704 194.766 42.2533 195.473 41.9138C203.097 38.2528 173.201 46.6385 168.426 52.1708C167.692 53.0201 168.703 53.1123 169.945 52.7043C172.924 51.7257 178.641 49.3243 188.369 46.5434C193.965 44.9438 201.166 43.9774 207.658 43.3703C214.15 42.7633 219.784 42.8045 227.459 43.6545C235.134 44.5045 244.68 46.162 250.912 47.459C259.846 49.3184 266.962 52.7535 274.463 56.1228C284.257 60.5222 300.78 65.9856 306.188 69.5305C309.454 72.5123 311.994 75.2227 312.2 75.9556C312.146 75.9605 311.771 75.2204 311.384 74.4579" stroke="white" stroke-width="26" stroke-linecap="round"/>
<path d="M295.478 60.5755C292.75 57.98 284.708 51.1346 266.361 42.5831C259.563 39.4145 250.699 39.673 244.223 40.1554C243.172 40.2338 242.353 40.9947 241.794 41.6315C241.234 42.2684 241.004 43.0028 242.435 44.5743C253.562 54.0524 264.491 62.7476 270.922 66.6141C273.335 68.0015 274.023 68.2219 275.507 68.3865" stroke="white" stroke-width="26" stroke-linecap="round"/>
<path d="M285.396 146.034C285.336 146.034 285.275 144.392 284.818 142.152C284.568 140.924 281.19 143.731 278.74 145.953C277.707 146.89 277.566 147.901 277.952 148.198C285.46 153.977 295.521 130.052 295.868 128.702C296.026 128.087 295.256 127.545 294.553 127.195C293.85 126.845 293.01 126.686 292.06 126.844C291.109 127.001 290.075 127.48 289.441 128.145C288.257 129.388 288.595 131.612 289.173 133.692C289.453 134.702 290.124 135.482 290.821 136.023C293.734 138.284 298.782 138.07 302.801 140.976C304.036 141.869 305.112 143.443 305.171 144.535C305.284 146.654 298.009 147.119 291.908 148.937C287.901 151.549 284.74 154.016 283.277 155.811C282.559 156.789 281.894 157.904 280.607 160.24" stroke="white" stroke-width="16" stroke-linecap="round"/>
<path d="M82.8263 290.245C83.8413 289.464 86.2441 283.656 87.3201 278.51C87.5211 277.549 88.0062 276.768 88.6736 276.268C89.3411 275.767 90.2903 275.601 91.0814 275.867C96.0245 277.524 96.2835 289.951 98.3901 295.49C100.079 299.931 86.7413 294.397 83.2426 294.756C79.3936 295.152 76.3384 299.427 71.0324 306.797C70.1866 307.972 71.4183 308.227 72.3738 307.922C74.4431 307.262 75.9187 305.372 76.8622 303.352C78.0002 300.917 77.033 298.425 76.1711 296.952C71.9675 294.353 68.0199 293.451 65.9915 293.292C64.7988 293.245 63.2746 293.267 61.7041 293.289" stroke="white" stroke-width="16" stroke-linecap="round"/>
</svg>
