<?xml version="1.0" standalone="no"?>
<!DOCTYPE svg PUBLIC "-//W3C//DTD SVG 20010904//EN"
 "http://www.w3.org/TR/2001/REC-SVG-20010904/DTD/svg10.dtd">
<svg version="1.0" xmlns="http://www.w3.org/2000/svg"
 width="1206.000000pt" height="1206.000000pt" viewBox="0 0 1206.000000 1206.000000"
 preserveAspectRatio="xMidYMid meet">

<g transform="translate(0.000000,1206.000000) scale(0.100000,-0.100000)"
fill="#000000" stroke="none">
<path d="M1994 11928 c-21 -4 -67 -7 -101 -7 -34 -1 -65 -5 -68 -11 -3 -5 -26
-10 -50 -10 -24 0 -47 -4 -50 -10 -3 -5 -19 -10 -36 -10 -16 0 -38 -4 -49 -10
-11 -5 -29 -14 -40 -20 -11 -5 -29 -10 -39 -10 -11 0 -23 -4 -26 -10 -3 -5
-17 -10 -30 -10 -13 0 -27 -4 -30 -10 -3 -5 -14 -10 -23 -10 -18 0 -286 -132
-312 -154 -8 -7 -31 -20 -51 -29 -20 -9 -42 -23 -49 -32 -7 -8 -17 -15 -22
-15 -5 0 -22 -13 -38 -30 -16 -16 -33 -30 -38 -30 -5 0 -19 -11 -32 -25 -13
-14 -28 -25 -34 -25 -16 0 -286 -273 -286 -289 0 -7 -16 -29 -35 -48 -19 -19
-35 -36 -35 -38 0 -7 56 9 65 19 14 16 154 56 173 49 9 -4 13 -2 9 4 -4 6 5
18 19 28 14 9 55 45 90 79 35 35 65 62 67 60 1 -2 22 15 46 36 24 22 50 40 57
40 7 0 21 11 30 25 9 14 27 28 40 31 13 3 24 10 24 15 0 5 7 9 16 9 14 0 72
34 84 51 3 3 22 12 43 18 20 7 37 17 37 22 0 6 4 8 9 4 5 -3 12 -1 16 5 3 5
27 19 53 30 26 12 58 27 72 34 14 8 41 17 60 21 19 4 40 11 45 14 6 4 44 20
86 35 74 26 126 36 319 56 63 7 1444 10 4150 8 3906 -3 4058 -4 4125 -21 39
-11 113 -34 165 -52 52 -18 106 -36 120 -41 14 -4 41 -15 60 -25 19 -11 44
-19 56 -19 25 0 45 -10 126 -63 31 -20 60 -37 63 -37 3 0 15 -9 27 -20 11 -10
33 -22 48 -25 14 -3 41 -21 58 -40 18 -19 43 -37 55 -41 12 -4 29 -15 38 -25
9 -11 19 -19 23 -19 4 0 32 -24 62 -52 123 -116 137 -128 146 -128 5 0 6 -5 2
-12 -4 -6 -3 -8 3 -5 12 8 155 -30 163 -43 9 -14 60 -24 60 -11 0 6 -4 11 -10
11 -5 0 -10 8 -10 18 0 10 -25 42 -55 72 -30 30 -55 60 -55 67 0 7 -7 13 -15
13 -9 0 -20 11 -25 25 -5 14 -18 28 -27 32 -10 4 -47 36 -82 72 -35 36 -67 65
-71 64 -4 -1 -20 11 -35 27 -16 17 -34 30 -40 30 -6 0 -22 12 -36 26 -13 14
-42 34 -65 44 -22 11 -47 26 -54 35 -7 8 -18 15 -25 15 -6 0 -20 9 -29 19 -10
11 -29 22 -44 26 -15 4 -29 10 -32 13 -9 12 -91 52 -106 52 -7 0 -29 9 -49 20
-20 11 -44 20 -55 20 -10 0 -22 5 -25 10 -3 6 -17 10 -31 10 -13 0 -24 5 -24
10 0 6 -11 10 -24 10 -14 0 -28 5 -31 10 -3 6 -17 10 -30 10 -13 0 -27 5 -30
10 -3 6 -21 10 -39 10 -17 0 -36 4 -42 8 -19 17 -92 31 -191 36 -150 9 -8104
12 -8149 4z"/>
<path d="M5650 11369 c-30 -5 -89 -13 -130 -18 l-75 -9 95 5 c224 10 834 13
844 3 5 -5 46 -10 90 -9 64 0 76 2 56 10 -13 5 -49 10 -80 9 -30 0 -80 4 -110
9 -68 12 -615 12 -690 0z"/>
<path d="M5337 11333 c-4 -3 -24 -8 -45 -9 -20 -1 -66 -7 -102 -13 -85 -14
-117 -19 -165 -26 -22 -4 -47 -9 -55 -13 -8 -3 -44 -11 -80 -18 -36 -7 -94
-20 -130 -29 -36 -9 -90 -21 -120 -27 -30 -6 -59 -14 -65 -17 -5 -4 -35 -15
-65 -24 -203 -61 -380 -121 -435 -146 -11 -5 -60 -26 -110 -46 -49 -21 -94
-41 -100 -46 -5 -5 -16 -9 -24 -9 -14 0 -303 -143 -391 -194 -25 -14 -56 -31
-70 -38 -14 -7 -27 -15 -30 -18 -3 -3 -18 -12 -35 -20 -16 -8 -44 -25 -61 -37
-17 -13 -35 -23 -40 -23 -6 0 -25 -13 -44 -30 -19 -16 -38 -29 -42 -30 -4 0
-36 -20 -72 -45 -37 -25 -69 -45 -72 -45 -5 0 -99 -72 -135 -103 -9 -8 -30
-23 -48 -33 -17 -10 -31 -22 -31 -26 0 -4 -5 -8 -11 -8 -6 0 -28 -15 -48 -32
-20 -18 -58 -51 -85 -73 -258 -210 -545 -502 -755 -765 -33 -41 -66 -82 -73
-90 -38 -46 -102 -134 -176 -245 -26 -38 -59 -86 -75 -106 -15 -20 -27 -39
-27 -42 0 -3 -17 -32 -38 -64 -21 -32 -52 -83 -69 -113 -17 -30 -40 -71 -51
-90 -37 -61 -196 -382 -226 -455 -15 -38 -37 -87 -48 -108 -11 -20 -23 -50
-28 -65 -5 -15 -25 -72 -45 -127 -20 -55 -48 -136 -62 -180 -13 -44 -28 -89
-33 -100 -15 -39 -40 -132 -40 -151 0 -11 -4 -24 -9 -29 -5 -6 -14 -32 -21
-60 -20 -86 -41 -188 -52 -250 -6 -33 -14 -69 -18 -80 -13 -31 -19 -106 -9
-99 5 3 9 25 9 49 0 24 5 47 10 50 6 3 10 21 10 40 0 19 4 37 10 40 5 3 10 16
10 29 0 12 4 26 9 32 5 5 11 25 13 44 l3 35 67 5 c63 5 67 4 62 -15 -24 -104
-44 -216 -44 -251 0 -24 -11 -89 -25 -146 -14 -57 -25 -125 -25 -153 0 -27 -4
-66 -10 -85 -5 -19 -12 -100 -14 -180 -3 -80 -10 -169 -15 -199 -14 -69 -14
-338 0 -416 5 -33 12 -121 14 -195 2 -74 9 -155 14 -180 5 -25 13 -78 16 -118
4 -40 13 -94 21 -120 8 -26 19 -92 25 -147 9 -95 20 -167 35 -227 l6 -28 -66
0 c-64 0 -66 1 -66 25 0 14 -4 25 -10 25 -5 0 -10 15 -10 34 0 19 -4 37 -9 40
-5 3 -11 23 -14 43 -3 21 -10 56 -16 78 -10 38 -10 38 -6 5 2 -19 9 -57 15
-85 6 -27 12 -61 15 -75 2 -14 11 -56 20 -95 9 -38 21 -92 26 -120 6 -27 15
-54 20 -59 5 -6 9 -18 9 -27 0 -9 7 -41 16 -70 10 -30 30 -97 46 -149 30 -96
53 -161 69 -192 5 -10 9 -23 9 -29 0 -6 6 -25 14 -42 7 -18 28 -68 47 -112 18
-44 37 -83 42 -86 5 -4 7 -11 4 -16 -3 -5 10 -38 29 -73 19 -35 34 -69 34 -75
0 -15 217 -423 231 -435 3 -3 14 -18 23 -35 9 -16 25 -43 36 -60 11 -16 23
-37 27 -45 10 -23 67 -105 76 -108 4 -2 7 -8 7 -13 0 -5 18 -32 40 -60 22 -28
40 -55 40 -60 0 -5 8 -17 18 -27 9 -10 29 -35 43 -55 14 -20 38 -52 53 -69 15
-18 57 -72 94 -119 38 -47 89 -108 114 -135 25 -27 86 -94 135 -149 110 -124
305 -302 547 -502 36 -30 218 -168 240 -183 13 -8 88 -58 167 -111 79 -53 158
-104 174 -113 17 -9 48 -28 70 -41 22 -14 56 -34 75 -44 19 -11 51 -29 70 -40
19 -11 94 -49 165 -84 117 -58 153 -75 260 -122 17 -8 55 -24 85 -38 30 -13
66 -28 80 -32 14 -4 30 -11 35 -15 6 -4 25 -11 43 -15 18 -4 45 -13 60 -21 15
-8 34 -14 42 -14 9 0 20 -4 25 -9 12 -10 195 -68 245 -77 19 -4 40 -10 45 -14
12 -8 72 -26 135 -41 25 -6 72 -17 105 -25 55 -13 149 -33 250 -54 22 -5 74
-14 115 -20 41 -6 93 -15 116 -20 22 -5 83 -11 135 -14 110 -6 71 3 -121 28
-142 19 -179 25 -205 36 -22 9 -104 24 -248 46 -20 4 -40 10 -43 15 -3 5 -18
9 -34 9 -16 0 -32 5 -35 10 -4 6 -11 7 -17 4 -5 -4 -20 -2 -31 4 -12 5 -51 18
-87 27 -105 29 -215 67 -221 78 -4 5 -26 11 -50 13 -90 9 -46 14 127 16 98 1
197 2 219 1 40 -2 111 -20 130 -34 6 -4 53 -12 105 -18 85 -11 141 -23 235
-52 16 -5 95 -16 175 -24 80 -8 181 -19 225 -25 44 -5 109 -13 145 -17 96 -11
627 -8 755 5 366 36 473 51 549 76 43 14 90 26 104 26 33 0 152 20 177 30 86
34 96 35 330 31 145 -3 171 -5 136 -13 -24 -5 -58 -18 -76 -28 -19 -10 -50
-22 -69 -26 -20 -3 -39 -10 -41 -15 -3 -4 -27 -11 -53 -15 -26 -3 -65 -15 -86
-25 -22 -10 -61 -22 -88 -25 -27 -4 -51 -11 -54 -15 -3 -5 -18 -9 -33 -9 -15
0 -31 -3 -35 -8 -4 -4 -17 -8 -29 -9 -59 -6 -176 -29 -183 -36 -4 -4 -20 -7
-36 -7 -15 0 -36 -4 -46 -9 -9 -6 -64 -15 -122 -21 -58 -6 -125 -14 -150 -19
-44 -9 -44 -9 15 -6 112 7 294 31 330 45 14 5 39 10 54 10 15 0 31 3 35 7 4 5
38 13 74 20 80 14 237 52 337 83 17 5 55 16 85 24 30 9 64 20 75 24 11 5 47
17 80 28 67 20 76 24 123 47 19 9 41 17 51 17 9 0 26 7 37 15 10 8 27 15 37
15 11 0 31 6 45 14 52 26 127 60 137 60 17 2 483 234 490 245 3 6 25 20 48 31
23 11 60 31 82 45 22 14 54 32 72 41 18 9 37 22 44 30 6 8 15 14 19 14 4 0 58
35 120 78 62 42 120 82 129 87 21 13 252 190 271 208 8 8 42 36 75 62 33 26
75 62 92 79 18 17 77 72 130 121 54 50 134 129 178 177 44 48 100 110 125 137
82 89 140 159 140 168 0 5 14 22 30 38 17 16 30 35 30 42 0 7 4 13 10 13 5 0
39 39 74 88 36 48 86 114 111 148 25 33 45 65 45 71 0 6 15 30 33 54 36 48 88
132 123 195 22 41 59 104 82 139 6 11 15 27 18 35 3 8 10 22 15 30 9 15 103
206 165 336 19 39 34 76 34 81 0 6 9 28 19 50 11 21 29 63 41 93 11 30 25 64
30 75 4 11 18 52 30 90 11 39 25 79 29 90 18 42 82 260 85 287 1 3 4 10 9 14
4 4 7 19 7 34 0 15 3 30 8 34 12 12 65 286 56 295 -1 2 -6 -10 -9 -25 -6 -28
-19 -80 -35 -134 -6 -23 -12 -25 -66 -28 -41 -2 -63 -8 -73 -20 -12 -15 -13
-14 -6 8 27 95 55 232 55 272 0 25 9 86 19 135 11 48 25 122 32 163 7 41 14
86 17 100 11 64 13 989 2 1070 -12 88 -47 300 -56 335 -3 11 -9 65 -14 120 -8
92 -27 175 -49 216 -5 9 -12 38 -15 65 -3 29 -2 39 2 24 7 -23 13 -25 75 -28
64 -3 67 -4 67 -27 0 -14 5 -25 10 -25 6 0 10 -13 10 -29 0 -17 5 -33 10 -36
6 -3 10 -21 10 -38 0 -18 5 -39 11 -47 11 -16 8 11 -12 105 -5 28 -15 75 -21
105 -5 30 -14 59 -19 65 -5 5 -9 21 -9 36 0 15 -4 30 -9 33 -4 3 -11 25 -14
48 -5 38 -56 210 -77 263 -4 11 -17 47 -28 80 -75 223 -131 355 -257 609 -115
230 -142 281 -159 295 -9 7 -16 19 -16 25 0 14 -105 184 -193 312 -69 101
-107 154 -212 289 -33 43 -69 90 -80 104 -11 14 -38 46 -61 71 -23 25 -55 61
-71 81 -35 44 -454 459 -464 459 -3 0 -24 17 -45 38 -43 41 -110 97 -187 155
-50 38 -99 76 -127 100 -8 6 -22 17 -31 22 -9 6 -65 44 -125 85 -60 41 -113
77 -119 79 -5 2 -31 19 -57 38 -26 18 -50 33 -53 33 -2 0 -29 16 -59 35 -30
19 -62 35 -70 35 -8 0 -16 4 -18 10 -7 20 -389 212 -558 280 -30 12 -76 33
-101 45 -26 13 -62 26 -80 30 -19 3 -50 13 -69 21 -19 9 -44 19 -55 24 -19 8
-57 21 -160 53 -27 9 -67 19 -88 23 -20 3 -40 10 -43 15 -3 5 -16 9 -29 9 -13
0 -26 4 -29 9 -4 5 -29 12 -58 16 -29 4 -59 11 -68 16 -16 9 -67 21 -185 44
-38 8 -90 19 -115 25 -41 10 -143 26 -310 50 -36 5 -83 9 -105 8 l-40 -1 50
-9 c28 -5 95 -13 150 -18 55 -6 108 -15 117 -20 10 -6 35 -10 56 -10 21 0 42
-3 46 -7 4 -5 40 -13 79 -20 122 -20 192 -35 202 -43 6 -4 30 -11 55 -15 24
-4 51 -11 60 -15 8 -5 44 -16 80 -26 36 -10 70 -21 75 -24 6 -4 29 -10 52 -14
24 -3 58 -15 77 -25 18 -11 53 -24 77 -29 36 -8 9 -10 -136 -13 -236 -4 -245
-4 -313 20 -32 12 -105 28 -163 36 -57 8 -130 24 -161 34 -32 11 -101 25 -155
31 -148 16 -268 30 -373 42 -191 23 -828 12 -980 -16 -14 -3 -81 -10 -150 -16
-69 -6 -147 -18 -175 -25 -27 -8 -62 -16 -77 -19 -15 -2 -32 -7 -36 -10 -5 -3
-58 -12 -118 -21 -60 -8 -118 -19 -129 -24 -81 -35 -97 -36 -345 -32 -134 2
-167 5 -140 12 19 6 53 18 75 28 22 10 56 22 75 25 19 4 44 11 55 16 11 5 47
16 80 25 33 9 67 21 77 25 9 5 39 12 67 16 28 4 54 11 57 15 3 5 18 9 33 9 15
0 31 3 35 8 4 4 17 8 29 9 75 8 175 26 189 34 10 5 29 9 43 9 14 0 33 4 43 9
9 5 62 14 117 20 55 7 120 15 145 20 l45 8 -51 2 c-28 0 -54 -2 -57 -6z m-764
-310 c-7 -2 -19 -2 -25 0 -7 3 -2 5 12 5 14 0 19 -2 13 -5z m2892 -3 c13 -6
15 -9 5 -9 -8 0 -22 4 -30 9 -18 12 -2 12 25 0z m-2938 -6 c-3 -3 -12 -4 -19
-1 -8 3 -5 6 6 6 11 1 17 -2 13 -5z m2213 -419 c0 -8 -7 -15 -15 -15 -16 0
-20 12 -8 23 11 12 23 8 23 -8z m-2073 -117 c-3 -7 -5 -2 -5 12 0 14 2 19 5
13 2 -7 2 -19 0 -25z m1968 2 c3 -5 -3 -10 -14 -10 -12 0 -21 5 -21 10 0 6 6
10 14 10 8 0 18 -4 21 -10z m235 0 c0 -5 -16 -10 -35 -10 -19 0 -35 5 -35 10
0 6 16 10 35 10 19 0 35 -4 35 -10z m-130 -131 c0 -16 -4 -29 -10 -29 -12 0
-24 45 -15 60 11 18 25 1 25 -31z m-2180 6 c0 -8 -7 -15 -15 -15 -16 0 -20 12
-8 23 11 12 23 8 23 -8z m270 1 c0 -11 -19 -15 -25 -6 -3 5 1 10 9 10 9 0 16
-2 16 -4z m-1623 -831 c9 -25 -4 -29 -17 -6 -7 15 -7 21 0 21 6 0 13 -7 17
-15z m203 -55 c0 -5 -7 -10 -16 -10 -8 0 -12 5 -9 10 3 6 10 10 16 10 5 0 9
-4 9 -10z m2057 -34 c-2 -6 -12 -15 -23 -21 -76 -40 -352 -323 -496 -510 -4
-5 -18 -23 -31 -40 -93 -120 -230 -357 -308 -535 -11 -25 -24 -53 -30 -62 -5
-10 -9 -23 -9 -29 0 -6 -6 -25 -14 -42 -25 -58 -45 -112 -51 -137 -3 -14 -10
-34 -15 -45 -5 -11 -13 -40 -19 -65 -5 -25 -15 -63 -21 -85 -14 -50 -18 -71
-26 -115 -3 -19 -8 -42 -11 -50 -4 -8 -7 -26 -9 -40 -1 -14 -7 -61 -14 -105
-17 -117 -19 -162 -21 -345 -1 -159 16 -449 28 -480 3 -8 12 -49 19 -90 7 -41
19 -102 28 -135 8 -33 20 -82 26 -110 6 -27 15 -57 20 -66 5 -9 12 -33 15 -53
4 -20 11 -39 16 -42 5 -3 9 -13 9 -22 0 -9 7 -30 15 -46 8 -15 15 -33 15 -38
0 -23 140 -311 197 -406 90 -149 203 -307 317 -442 105 -124 352 -347 500
-451 172 -121 392 -242 571 -314 50 -19 97 -39 105 -44 9 -5 31 -12 50 -16 19
-4 41 -11 50 -16 22 -11 109 -36 155 -45 22 -3 45 -9 50 -13 10 -6 106 -26
185 -39 l45 -7 3 -85 c2 -72 7 -89 28 -117 21 -28 31 -33 65 -33 39 0 99 30
99 50 0 4 19 41 43 81 l42 72 233 3 c128 2 237 6 242 9 5 3 57 12 117 20 59 8
137 21 173 29 36 8 88 20 115 26 28 6 59 15 70 20 11 5 36 12 55 16 19 3 40
10 45 14 6 4 25 11 43 15 18 4 45 13 60 21 15 8 34 14 43 14 8 0 19 4 25 8 5
4 36 19 69 32 147 58 471 246 610 353 193 150 363 316 528 518 l28 34 -5 -40
c-7 -61 -24 -143 -47 -231 -11 -43 -25 -99 -31 -124 -5 -25 -14 -49 -19 -54
-5 -6 -9 -18 -9 -28 0 -20 -34 -125 -56 -175 -8 -17 -14 -36 -14 -42 0 -6 -4
-19 -10 -29 -5 -9 -16 -35 -25 -57 -10 -22 -29 -67 -45 -100 -15 -33 -31 -70
-34 -82 -4 -13 -31 -64 -60 -115 -28 -51 -55 -100 -60 -108 -16 -33 -126 -210
-141 -227 -5 -6 -21 -28 -35 -48 -198 -285 -455 -554 -729 -764 -90 -69 -328
-230 -361 -245 -8 -3 -37 -20 -65 -36 -58 -35 -330 -170 -343 -170 -4 0 -30
-11 -58 -24 -27 -13 -60 -26 -74 -30 -14 -4 -34 -11 -45 -16 -33 -13 -106 -37
-185 -60 -75 -21 -92 -27 -162 -49 -20 -6 -40 -11 -45 -10 -4 1 -15 0 -23 -4
-38 -15 -337 -64 -465 -77 -144 -14 -629 -8 -725 9 -71 13 -86 15 -175 26 -33
4 -65 12 -72 17 -7 5 -16 7 -20 5 -5 -3 -33 1 -63 9 -30 9 -64 17 -75 18 -11
2 -40 9 -65 16 -52 16 -45 14 -90 24 -19 5 -39 12 -45 16 -5 4 -26 11 -45 15
-19 4 -39 11 -45 15 -5 4 -26 11 -45 15 -19 4 -41 11 -50 15 -8 5 -40 18 -70
30 -87 34 -91 35 -180 76 -46 21 -104 50 -128 63 -40 22 -43 25 -36 55 10 46
62 153 106 218 50 72 186 202 285 270 90 62 109 92 97 152 -8 34 -15 44 -48
59 -35 17 -44 17 -85 5 -32 -9 -109 -13 -246 -13 -169 0 -208 3 -250 18 -27
11 -58 20 -68 22 -29 6 -124 52 -187 90 -74 45 -204 172 -258 252 -48 70 -65
83 -116 83 -28 0 -40 -7 -62 -35 -22 -29 -25 -41 -20 -72 23 -133 28 -231 17
-308 -18 -116 -20 -125 -34 -124 -20 1 -218 224 -314 354 -103 139 -199 282
-229 342 -11 23 -25 48 -31 55 -10 13 -123 235 -148 293 -8 17 -25 56 -39 87
-14 32 -29 70 -32 85 -4 14 -13 38 -20 52 -8 14 -14 34 -14 43 0 9 -4 19 -9
22 -5 4 -12 24 -16 46 -4 22 -10 42 -15 45 -5 3 -11 24 -15 47 -4 23 -11 49
-16 58 -4 8 -13 38 -19 65 -6 28 -18 79 -26 115 -8 36 -22 103 -30 150 -14 81
-19 117 -45 340 -19 166 0 691 30 800 5 19 14 64 20 100 16 107 31 184 38 200
4 8 12 40 20 70 17 73 16 68 61 205 39 116 49 143 78 212 8 17 14 34 14 38 0
4 32 73 71 153 117 240 217 405 368 607 41 55 78 102 81 105 3 3 32 37 64 75
219 258 539 528 836 707 151 91 419 228 444 228 3 0 29 11 58 24 29 13 82 34
118 46 36 12 74 26 85 30 11 5 54 18 95 30 41 12 86 25 100 30 14 4 70 18 125
30 55 12 114 25 130 29 38 9 77 2 72 -13z m4670 -118 c18 -17 23 -32 23 -74 0
-88 -6 -90 -61 -22 -51 64 -55 73 -39 83 6 4 7 11 4 17 -4 6 1 8 15 3 12 -4
21 -2 21 4 0 17 11 13 37 -11z m-6807 -29 c0 -5 -4 -9 -10 -9 -5 0 -10 7 -10
16 0 8 5 12 10 9 6 -3 10 -10 10 -16z m2224 -954 c-4 -8 -8 -15 -10 -15 -2 0
-4 7 -4 15 0 8 4 15 10 15 5 0 7 -7 4 -15z m-3134 -135 c0 -5 -2 -10 -4 -10
-3 0 -8 5 -11 10 -3 6 -1 10 4 10 6 0 11 -4 11 -10z m2880 -60 c12 -8 11 -10
-7 -10 -12 0 -25 5 -28 10 -8 13 15 13 35 0z m4414 -21 c-3 -5 -10 -7 -15 -3
-5 3 -7 10 -3 15 3 5 10 7 15 3 5 -3 7 -10 3 -15z m-104 1 c0 -5 -4 -10 -10
-10 -5 0 -10 5 -10 10 0 6 5 10 10 10 6 0 10 -4 10 -10z m-7035 -10 c-3 -5
-13 -10 -21 -10 -8 0 -14 5 -14 10 0 6 9 10 21 10 11 0 17 -4 14 -10z m3213
-37 c-10 -2 -26 -2 -35 0 -10 3 -2 5 17 5 19 0 27 -2 18 -5z m-301 -215 c-3
-8 -6 -5 -6 6 -1 11 2 17 5 13 3 -3 4 -12 1 -19z m4548 -836 c0 -18 -20 -15
-23 4 -3 10 1 15 10 12 7 -3 13 -10 13 -16z m-3275 -82 c20 -10 40 -59 40 -97
0 -13 4 -31 9 -41 4 -9 21 -43 37 -75 15 -32 46 -75 68 -95 43 -39 144 -86
208 -97 41 -6 68 -35 68 -71 0 -26 -44 -64 -73 -64 -11 0 -37 -5 -56 -12 -159
-52 -235 -133 -275 -296 -9 -35 -16 -66 -16 -68 0 -2 -7 -4 -15 -4 -8 0 -15
-4 -15 -10 0 -5 -13 -10 -28 -10 -37 0 -69 35 -77 85 -13 77 -64 169 -136 243
-28 28 -102 64 -184 88 -35 11 -60 54 -51 89 5 19 20 28 77 45 82 26 99 34
155 75 38 27 114 122 114 142 0 4 6 20 14 34 7 14 16 43 20 65 13 69 64 102
116 74z m2020 -10 c0 -11 -4 -20 -10 -20 -5 0 -10 9 -10 20 0 11 5 20 10 20 6
0 10 -9 10 -20z m1415 0 c-3 -5 -17 -10 -31 -10 -14 0 -22 4 -19 10 3 6 17 10
31 10 14 0 22 -4 19 -10z m-253 -25 c0 -5 -5 -11 -11 -13 -6 -2 -11 4 -11 13
0 9 5 15 11 13 6 -2 11 -8 11 -13z m118 -126 c0 -18 -4 -28 -10 -24 -5 3 -10
20 -10 36 0 18 4 28 10 24 6 -3 10 -20 10 -36z m-1500 -39 c0 -5 -7 -7 -15 -4
-8 4 -15 8 -15 10 0 2 7 4 15 4 8 0 15 -4 15 -10z m320 -40 c0 -5 -2 -10 -4
-10 -3 0 -8 5 -11 10 -3 6 -1 10 4 10 6 0 11 -4 11 -10z m93 -7 c-7 -2 -19 -2
-25 0 -7 3 -2 5 12 5 14 0 19 -2 13 -5z m-7496 -19 c-3 -3 -12 -4 -19 -1 -8 3
-5 6 6 6 11 1 17 -2 13 -5z m3993 -130 c0 -8 -4 -12 -10 -9 -5 3 -10 10 -10
16 0 5 5 9 10 9 6 0 10 -7 10 -16z m3257 -31 c-3 -10 -5 -2 -5 17 0 19 2 27 5
18 2 -10 2 -26 0 -35z m-3263 -64 c-3 -5 -10 -7 -15 -3 -5 3 -7 10 -3 15 3 5
10 7 15 3 5 -3 7 -10 3 -15z m380 -1050 c-3 -5 -9 -9 -15 -9 -11 0 -12 43 -2
54 9 9 25 -33 17 -45z m4806 -9 c0 -5 -9 -10 -20 -10 -11 0 -20 5 -20 10 0 6
9 10 20 10 11 0 20 -4 20 -10z m-2520 -80 c0 -11 -4 -20 -10 -20 -5 0 -10 9
-10 20 0 11 5 20 10 20 6 0 10 -9 10 -20z m-2400 -14 c0 -8 -4 -17 -9 -21 -12
-7 -24 12 -16 25 9 15 25 12 25 -4z m240 -6 c0 -4 -7 -10 -15 -13 -16 -7 -29
8 -20 23 6 10 35 2 35 -10z m1224 -117 c22 -99 70 -223 89 -231 4 -2 7 -8 7
-13 0 -12 81 -118 114 -148 31 -29 33 -41 7 -41 -11 0 -40 -9 -65 -20 -25 -10
-46 -16 -46 -13 0 4 -5 2 -12 -5 -7 -7 -19 -12 -28 -12 -24 0 -179 -106 -235
-161 -69 -67 -74 -66 -90 21 -3 19 -10 44 -14 55 -24 58 -56 131 -61 135 -3 3
-16 26 -30 52 -13 26 -48 73 -77 103 -29 31 -53 57 -53 59 0 2 18 6 40 10 23
3 49 10 58 15 192 94 277 151 340 230 18 23 34 41 36 41 2 0 11 -35 20 -77z
m-1346 14 c2 -10 -3 -17 -12 -17 -10 0 -16 9 -16 21 0 24 23 21 28 -4z m2187
14 c3 -5 1 -13 -5 -16 -15 -9 -43 3 -35 15 8 13 32 13 40 1z m215 0 c0 -6 -4
-12 -9 -15 -13 -8 -42 4 -35 15 7 12 44 12 44 0z m-120 -127 c0 -16 -16 -19
-25 -4 -8 13 4 32 16 25 5 -4 9 -13 9 -21z m-5730 -1073 c0 -11 -4 -23 -10
-26 -6 -4 -10 5 -10 19 0 14 5 26 10 26 6 0 10 -9 10 -19z m-115 -201 c3 -5
-3 -10 -14 -10 -12 0 -21 5 -21 10 0 6 6 10 14 10 8 0 18 -4 21 -10z m235 0
c0 -5 -7 -10 -16 -10 -8 0 -12 5 -9 10 3 6 10 10 16 10 5 0 9 -4 9 -10z m1335
-130 c66 -74 250 -166 410 -205 53 -14 58 -14 175 -25 63 -6 121 -13 128 -16
8 -2 -9 -26 -45 -62 -101 -100 -194 -247 -235 -372 -34 -99 -38 -119 -49 -220
-6 -58 -13 -107 -15 -109 -3 -3 -26 16 -52 41 -109 107 -280 193 -452 226
-124 24 -176 32 -218 32 l-44 0 38 48 c21 26 44 52 50 57 21 19 121 180 152
245 55 119 87 253 84 358 l-2 63 28 -19 c15 -11 36 -30 47 -42z m-1468 -2 c-3
-8 -6 -5 -6 6 -1 11 2 17 5 13 3 -3 4 -12 1 -19z m13 -74 c0 -14 -4 -22 -10
-19 -5 3 -10 17 -10 31 0 14 4 22 10 19 6 -3 10 -17 10 -31z m360 -638 c0 -8
-4 -18 -10 -21 -5 -3 -10 3 -10 14 0 12 5 21 10 21 6 0 10 -6 10 -14z m-125
-236 c3 -5 -3 -10 -14 -10 -12 0 -21 5 -21 10 0 6 6 10 14 10 8 0 18 -4 21
-10z m245 0 c0 -5 -4 -10 -10 -10 -5 0 -10 5 -10 10 0 6 5 10 10 10 6 0 10 -4
10 -10z m-133 -222 c-3 -8 -6 -5 -6 6 -1 11 2 17 5 13 3 -3 4 -12 1 -19z
m5355 -420 c-9 -9 -12 -7 -12 12 0 19 3 21 12 12 9 -9 9 -15 0 -24z m-107 -88
c-3 -5 -13 -10 -21 -10 -8 0 -14 5 -14 10 0 6 9 10 21 10 11 0 17 -4 14 -10z
m265 0 c0 -5 -16 -10 -36 -10 -21 0 -33 4 -29 10 3 6 19 10 36 10 16 0 29 -4
29 -10z m-158 -122 c-9 -9 -12 -7 -12 12 0 19 3 21 12 12 9 -9 9 -15 0 -24z
m-3499 -835 c-7 -2 -19 -2 -25 0 -7 3 -2 5 12 5 14 0 19 -2 13 -5z m2870 0
c-7 -2 -19 -2 -25 0 -7 3 -2 5 12 5 14 0 19 -2 13 -5z"/>
<path d="M260 6990 c-1 -47 -5 -75 -7 -62 -4 19 -10 22 -57 22 l-53 0 -7 -113
c-4 -63 -7 -277 -6 -475 0 -233 -4 -362 -10 -362 -13 0 -13 -47 0 -55 13 -8
13 -112 0 -120 -13 -8 -13 -105 0 -105 6 0 10 -33 10 -80 0 -47 -4 -80 -10
-80 -13 0 -13 -97 0 -105 13 -8 13 -62 -1 -71 -16 -10 -8 -264 9 -264 6 0 12
-8 12 -17 0 -15 8 -17 52 -14 29 2 56 8 60 15 4 6 8 -9 9 -34 l2 -45 6 40 c3
23 2 43 -4 47 -15 11 -13 254 3 269 14 15 16 65 3 73 -12 8 -20 55 -9 62 4 3
6 10 2 15 -3 5 0 16 6 24 11 13 11 58 -2 208 -2 27 -1 50 3 53 9 5 9 811 0
1059 -5 133 -9 171 -11 115z"/>
<path d="M11257 6975 c7 -49 13 -58 13 -19 0 16 -5 36 -10 44 -6 10 -7 2 -3
-25z"/>
<path d="M11810 6020 c0 -620 3 -940 10 -940 6 0 10 3 10 8 0 4 26 7 57 7 l58
0 3 928 2 929 -60 -4 c-33 -1 -60 0 -60 5 0 4 -4 7 -10 7 -7 0 -10 -320 -10
-940z"/>
<path d="M761 6884 c0 -11 3 -14 6 -6 3 7 2 16 -1 19 -3 4 -6 -2 -5 -13z"/>
<path d="M11283 6855 c0 -22 2 -30 4 -17 2 12 2 30 0 40 -3 9 -5 -1 -4 -23z"/>
<path d="M11282 5180 c0 -19 2 -27 5 -17 2 9 2 25 0 35 -3 9 -5 1 -5 -18z"/>
<path d="M11267 5123 c-12 -41 -17 -97 -9 -83 5 8 12 34 15 58 5 43 2 56 -6
25z"/>
<path d="M252 5000 c0 -14 2 -19 5 -12 2 6 2 18 0 25 -3 6 -5 1 -5 -13z"/>
<path d="M242 4950 c0 -14 2 -19 5 -12 2 6 2 18 0 25 -3 6 -5 1 -5 -13z"/>
<path d="M11510 943 c-8 -3 -28 -11 -45 -18 -16 -7 -52 -19 -80 -26 -72 -17
-130 -54 -199 -126 -34 -35 -66 -63 -71 -63 -6 0 -17 -9 -25 -20 -8 -11 -19
-20 -26 -20 -6 0 -29 -17 -52 -37 -42 -39 -69 -57 -162 -105 -30 -16 -73 -40
-95 -54 -22 -13 -47 -27 -55 -31 -8 -3 -34 -14 -57 -24 -23 -11 -45 -19 -48
-19 -4 0 -21 -7 -38 -15 -68 -31 -176 -65 -257 -80 -47 -9 -96 -19 -110 -22
-14 -3 -40 -5 -58 -4 -18 2 -40 -3 -48 -10 -18 -15 -89 -15 -107 0 -11 8 -363
10 -1373 7 -747 -2 -1375 -4 -1394 -4 -19 0 -168 0 -330 0 -162 0 -299 0 -305
0 -5 -1 -38 1 -72 4 -37 4 -70 1 -83 -6 -15 -8 -25 -8 -34 0 -17 13 -639 9
-676 -5 -39 -15 -386 -13 -402 3 -15 15 -80 16 -95 1 -9 -9 -19 -9 -42 0 -35
15 -153 10 -223 -9 -39 -11 -57 -11 -95 0 -30 8 -102 12 -188 12 -77 0 -156
-1 -175 0 -19 0 -563 2 -1209 4 -1021 3 -1180 2 -1218 -11 -43 -15 -86 -12
-109 7 -7 5 -25 8 -40 8 -16 0 -49 3 -74 9 -25 5 -70 14 -102 19 -31 6 -76 19
-100 30 -78 36 -120 52 -134 52 -8 0 -33 9 -57 19 -23 11 -53 23 -67 27 -14 3
-37 15 -52 25 -14 11 -29 19 -32 19 -3 0 -24 13 -48 28 -24 16 -58 35 -75 43
-18 8 -33 17 -33 21 0 5 -6 8 -13 8 -17 0 -67 42 -67 56 0 6 -16 16 -35 24
-20 8 -43 22 -52 32 -9 10 -20 18 -24 18 -4 0 -41 33 -82 73 -82 80 -105 93
-222 131 -91 29 -115 20 -65 -26 17 -15 30 -33 30 -40 0 -14 245 -261 270
-272 33 -15 58 -33 93 -68 21 -21 44 -38 51 -38 8 0 16 -7 19 -15 3 -8 26 -23
50 -34 24 -11 50 -27 57 -36 7 -8 17 -15 23 -15 15 0 161 -73 165 -82 2 -4 10
-8 18 -8 8 0 23 -4 34 -10 11 -5 29 -14 40 -20 11 -5 29 -10 39 -10 11 0 23
-4 26 -10 3 -5 15 -10 25 -10 11 0 35 -9 55 -20 20 -11 44 -20 55 -20 10 0 22
-5 26 -11 3 -6 17 -8 30 -5 13 4 28 1 35 -6 7 -8 29 -12 56 -9 25 2 50 -2 56
-8 6 -6 32 -11 58 -11 26 0 51 -5 54 -10 8 -13 132 -13 140 0 8 13 98 13 112
-1 8 -8 13 -8 17 0 9 15 2142 16 2151 1 4 -6 13 -5 25 2 14 9 25 9 45 0 32
-15 82 -16 90 -2 9 14 168 13 183 -2 9 -9 15 -9 24 0 15 15 64 16 73 2 8 -13
182 -13 190 0 8 13 162 13 170 0 8 -13 52 -13 60 0 8 13 58 13 71 0 7 -7 84
-9 230 -5 587 14 839 16 862 4 17 -10 25 -10 34 -1 16 16 121 15 136 0 10 -10
17 -10 32 0 25 15 102 16 118 0 8 -8 15 -8 26 1 15 13 403 10 482 -4 27 -4 44
-3 48 4 9 15 2692 16 2701 1 8 -13 122 -13 130 0 3 5 35 10 70 10 35 0 67 5
70 11 4 6 27 9 51 8 24 -2 49 2 55 8 7 7 24 9 39 6 15 -3 31 0 34 6 4 6 18 11
31 11 13 0 27 5 30 10 3 6 17 10 31 10 13 0 24 5 24 10 0 6 9 10 20 10 11 0
35 9 55 20 20 11 41 20 48 20 15 0 245 115 267 134 8 7 31 20 51 29 20 9 42
23 49 32 7 8 18 15 25 15 6 0 20 9 30 20 10 11 23 20 30 20 6 0 26 16 45 35
19 19 39 35 45 35 12 0 280 276 280 289 0 5 13 23 28 41 30 33 32 40 7 33z"/>
<path d="M5575 709 c39 -5 106 -13 150 -19 90 -11 475 -12 575 0 39 4 -66 8
-267 8 -209 1 -334 6 -338 12 -3 6 -46 9 -98 9 l-92 -2 70 -8z"/>
<path d="M6370 710 c0 -12 82 -12 155 0 43 6 35 8 -52 9 -63 0 -103 -3 -103
-9z"/>
</g>
</svg>
